# xmcd
#
# Track frame offsets:
#	150
#	12111
#	26901
#	43297
#	55982
#	73458
#	90192
#	107568
#	123921
#	142321
#	159206
#	180163
#	199365
#	215067
#	231581
#
# Disc length: 3289 seconds
#
# Revision: 1
# Processed by: cddbd v1.5.1PL0 Copyright (c) Steve Scherf et al.
# Submitted via: audiograbber 1.83.01
#
DISCID=dc0cd70f
DTITLE=Chesney, Kenny - CB90022
DYEAR=1900
DGENRE=
TTITLE0=Fall In Love
TTITLE1=All I Need To Know
TTITLE2=Tin Man, The
TTITLE3=Somebody's Callin
TTITLE4=Grandma Told Me So
TTITLE5=Back In Your Arms Again
TTITLE6=Me and You
TTITLE7=When I Close My Eyes
TTITLE8=She's Got It All
TTITLE9=A Chance
TTITLE10=From Hillbilly Heaven To Honky Tonk Hell
TTITLE11=That's Why I'm Here
TTITLE12=She Gets That Way
TTITLE13=I Will Stand
TTITLE14=How Forever Feels
EXTD=
EXTT0=
EXTT1=
EXTT2=
EXTT3=
EXTT4=
EXTT5=
EXTT6=
EXTT7=
EXTT8=
EXTT9=
EXTT10=
EXTT11=
EXTT12=
EXTT13=
EXTT14=
PLAYORDER=
